<svg width="468" height="468" viewBox="0 0 468 468" fill="none" xmlns="http://www.w3.org/2000/svg">
<g clip-path="url(#clip0_1_55)">
<rect width="468" height="468" fill="#333754"/>
<circle cx="-24.5" cy="483.5" r="153.5" transform="rotate(-180 -24.5 483.5)" stroke="#3BC1FF" stroke-width="32"/>
<circle cx="540" cy="-121" r="251" transform="rotate(-180 540 -121)" stroke="#9D3BEA" stroke-width="32"/>
<path d="M262.288 389.214C216.938 389.214 182.322 376.602 158.439 351.377C134.825 326.153 123.017 290.329 123.017 243.905C123.017 220.828 126.64 200.299 133.885 182.32C141.131 164.073 151.059 148.777 163.672 136.433C176.284 123.821 191.311 114.295 208.754 107.855C226.196 101.414 245.114 98.1942 265.508 98.1942C277.316 98.1942 288.049 99.1334 297.71 101.012C307.37 102.622 315.823 104.634 323.068 107.05C330.314 109.196 336.351 111.477 341.182 113.892C346.012 116.307 349.5 118.186 351.647 119.528L333.534 170.245C324.947 165.683 314.884 161.792 303.345 158.572C292.075 155.352 279.194 153.742 264.703 153.742C255.043 153.742 245.517 155.352 236.125 158.572C227.001 161.792 218.817 167.025 211.571 174.27C204.594 181.247 198.959 190.371 194.665 201.641C190.372 212.912 188.225 226.597 188.225 242.698C188.225 255.578 189.567 267.654 192.25 278.924C195.202 289.926 199.764 299.453 205.936 307.503C212.376 315.553 220.695 321.994 230.892 326.824C241.089 331.386 253.433 333.667 267.924 333.667C277.047 333.667 285.232 333.13 292.477 332.057C299.722 330.983 306.163 329.776 311.798 328.434C317.433 326.824 322.398 325.08 326.691 323.201C330.985 321.323 334.876 319.579 338.364 317.969L355.672 368.283C346.817 373.65 334.339 378.48 318.238 382.774C302.138 387.067 283.488 389.214 262.288 389.214Z" fill="white"/>
</g>
<defs>
<clipPath id="clip0_1_55">
<rect width="468" height="468" fill="white"/>
</clipPath>
</defs>
</svg>
