<svg width="1470" height="127" viewBox="0 0 1470 127" fill="none" xmlns="http://www.w3.org/2000/svg">
<path d="M84.3298 84.3298L1.48783e-05 83.9841L83.984 6.2883e-05L84.3298 84.3298Z" fill="#3BC1FF"/>
<path d="M165.903 84.7026L82.3219 84.3599L165.56 1.12167L165.903 84.7026Z" fill="#3BC1FF"/>
<path d="M247.103 84.7026L163.522 84.3599L246.76 1.12167L247.103 84.7026Z" fill="#3BC1FF"/>
<path d="M329.052 84.3298L244.722 83.984L328.706 1.84785e-06L329.052 84.3298Z" fill="#3BC1FF"/>
<path d="M410.625 84.7026L327.044 84.3599L410.282 1.12167L410.625 84.7026Z" fill="#3BC1FF"/>
<path d="M491.825 84.7026L408.244 84.3599L491.483 1.12167L491.825 84.7026Z" fill="#3BC1FF"/>
<path d="M573.774 84.3298L489.444 83.984L573.428 1.84785e-06L573.774 84.3298Z" fill="#3BC1FF"/>
<path d="M655.347 84.7026L571.766 84.3599L655.004 1.12167L655.347 84.7026Z" fill="#3BC1FF"/>
<path d="M736.547 84.7026L652.966 84.3599L736.204 1.12167L736.547 84.7026Z" fill="#3BC1FF"/>
<path d="M818.495 84.3298L734.166 83.984L818.15 1.84785e-06L818.495 84.3298Z" fill="#3BC1FF"/>
<path d="M900.068 84.7026L816.487 84.3599L899.726 1.12167L900.068 84.7026Z" fill="#3BC1FF"/>
<path d="M981.269 84.7026L897.688 84.3599L980.926 1.12167L981.269 84.7026Z" fill="#3BC1FF"/>
<path d="M1063.22 84.3298L978.887 83.984L1062.87 1.84785e-06L1063.22 84.3298Z" fill="#3BC1FF"/>
<path d="M1144.79 84.7026L1061.21 84.3599L1144.45 1.12167L1144.79 84.7026Z" fill="#3BC1FF"/>
<path d="M1225.99 84.7026L1142.41 84.3599L1225.65 1.12167L1225.99 84.7026Z" fill="#3BC1FF"/>
<path d="M1307.94 84.3298L1223.61 83.984L1307.59 1.84785e-06L1307.94 84.3298Z" fill="#3BC1FF"/>
<path d="M1389.51 84.7026L1305.93 84.3599L1389.17 1.12167L1389.51 84.7026Z" fill="#3BC1FF"/>
<path d="M1470.71 84.7026L1387.13 84.3599L1470.37 1.12167L1470.71 84.7026Z" fill="#3BC1FF"/>
</svg>
